<svg viewBox="0 0 300 300" xmlns="http://www.w3.org/2000/svg" width="300" height="300" preserveAspectRatio="xMidYMid meet">
  <g transform="matrix(1.572327, 0, 0, 1.572327, 0.000012, 36.514961)" id="object-0">
    <path d="m29.578 144.347c-8.521 0-13.986-5.786-13.986-14.466v-36.007c0-8.982-6.117-13.936-14.616-14.286a1 1 0 0 1 -.976-.995v-13a1 1 0 0 1 .976-.993c8.5-.35 14.616-5.3 14.616-14.126v-36.007c0-8.68 5.465-14.467 13.986-14.467h14.111a1 1 0 0 1 1 1v11.022a1 1 0 0 1 -1 1h-11.346a1 1 0 0 0 -1 1v36.778c0 9.832-6.515 18.3-15.134 20.4a1 1 0 0 0 -.78.97v.012a1 1 0 0 0 .78.969c8.619 2.1 15.134 10.571 15.134 20.4v36.779a1 1 0 0 0 1 1h11.346a1 1 0 0 1 1 1v11.023a1 1 0 0 1 -1 1z" fill="#ffffff"></path>
    <path d="m130.275 0c8.52 0 14.306 5.787 14.306 14.467v36.006c0 8.828 6.118 13.776 14.616 14.126a1 1 0 0 1 .977.995v13a1 1 0 0 1 -.977.995c-8.5.35-14.616 5.3-14.616 14.286v36.007c0 8.68-5.786 14.466-14.306 14.466h-14.112a1 1 0 0 1 -1-1v-11.022a1 1 0 0 1 1-1h11.667a1 1 0 0 0 1-1v-36.773c0-9.84 6.222-18.313 15.127-20.408a1 1 0 0 0 .787-.971 1 1 0 0 0 -.787-.971c-8.905-2.095-15.127-10.569-15.127-20.408v-36.777a1 1 0 0 0 -1-1h-11.667a1 1 0 0 1 -1-1v-11.018a1 1 0 0 1 1-1z" fill="#ffffff"></path>
    <path d="m190.8 20.641v104.38a1 1 0 0 1 -1 1h-29.526a1 1 0 0 1 -1-1v-8.9a1 1 0 0 1 1-1h15.67a1 1 0 0 0 1-1v-82.582a1 1 0 0 0 -1-1h-15.67a1 1 0 0 1 -1-1v-8.9a1 1 0 0 1 1-1h29.526a1 1 0 0 1 1 1.002z" fill="#ffffff"></path>
    <path d="m40.28 74.117-.011-4.13a1.078 1.078 0 0 1 .5-.91l22.925-14.689a1.077 1.077 0 0 1 1.659.905l.015 5.556a1.078 1.078 0 0 1 -.513.921l-16.331 10.041v.438l16.386 9.951a1.078 1.078 0 0 1 .519.918l.015 5.556a1.078 1.078 0 0 1 -1.655.914l-23.008-14.563a1.079 1.079 0 0 1 -.501-.908z" fill="#d9386e"></path>
    <path d="m67.812 98.412 17.1-53.576a1.077 1.077 0 0 1 1.024-.75l4.422-.012a1.078 1.078 0 0 1 1.03 1.405l-17.1 53.577a1.08 1.08 0 0 1 -1.024.75l-4.422.012a1.078 1.078 0 0 1 -1.03-1.406z" fill="#d9386e"></path>
    <path d="m94.969 83.04a1.08 1.08 0 0 1 .514-.922l16.331-10.04v-.438l-16.386-9.953a1.078 1.078 0 0 1 -.519-.918l-.015-5.556a1.078 1.078 0 0 1 1.654-.914l23.008 14.565a1.076 1.076 0 0 1 .5.908l.011 4.069a1.076 1.076 0 0 1 -.494.908l-22.928 14.8a1.078 1.078 0 0 1 -1.662-.9z" fill="#d9386e"></path>
  </g>
</svg>